/* XPM */
static char *qdude[] = {
/* columns rows colors chars-per-pixel */
"32 32 29 1",
"  c Gray0",
". c Gray3",
"X c #181818",
"o c Gray13",
"O c #313131",
"+ c #393939",
"@ c Gray29",
"# c #521800",
"$ c #523100",
"% c #525200",
"& c Gray32",
"* c Gray39",
"= c Gray42",
"- c #734a00",
"; c #7b7b7b",
": c #848484",
"> c #946300",
", c Gray58",
"< c Gray61",
"1 c #bd7b00",
"2 c #c6c6c6",
"3 c #de9400",
"4 c #ff734a",
"5 c #ff8c6b",
"6 c #ff8c8c",
"7 c #ffad21",
"8 c #ffad8c",
"9 c #ffbd4a",
"0 c #ffffd6",
/* pixels */
"                                ",
"                                ",
"                                ",
"  2   2                         ",
" 2     2                        ",
" 2     2      XX@XX.            ",
" 2< 2 <2   O@&@@=&@@@O          ",
"  22222  &***&=:8,=**@@O        ",
"    2    +=&O$@***@$$@*$        ",
"    <    @@#o@@***@@$#+@        ",
"    <    $XX++&&=*&++XX$        ",
"         oXoXoooooooooX$        ",
"         $oX-4554584-Xo$        ",
"         O$X>$-555-$-#o$        ",
"         $X$>-$-5-$->$XO        ",
"         OX-585808585-X$        ",
"         $X$>5>>5>-54%Xo        ",
"         $+$@>**@**>$-O$        ",
"         $@:**@>44@--*=$        ",
" @      Xo$&*4$=5:$>=&@o      @ ",
"@5XX.>31oo$oO;>454>=@o$oX13>+.;=",
"@6O+.173-XoXX+=;*;;+XXOX$131oo5=",
"@8O@.>171>XoXXX#XXX#XXX$1771.o8=",
"@,OO$3371311---$Xo----133131XX;*",
"&8+o>3777777777-$$3777373773#o;@",
"&:+X>1137777999>>>3997773111#o,&",
"*=*X-131111>>-44444->1111111XO4;",
";&=o-1>>1>---$>--->-->>131>1X@;*",
"&@&+-111137777-$.#$7733>-111X*=o",
"@+&+-1>11>>313>-$$>333331131o=&o",
"+o&@->1113>--$44444$$->13111o>+o",
"O+=o-11113373>$%%%%-173111-1o&1O"
};
